# Blender v2.80 (sub 75) OBJ File: 'axes.blend'
# www.blender.org
mtllib custombox.mtl
o boxleft
v -7.913412 9.212319 5.203348
v -7.913412 9.212321 -4.796652
v 2.086589 9.212321 -4.796652
v 2.086589 9.212319 5.203348
v -7.913412 19.212318 5.203350
v 2.086589 19.212318 5.203350
v 2.086589 19.212322 -4.796650
v -7.913412 19.212322 -4.796650
vt 1.000000 0.000000
vt 1.000000 1.000000
vt 0.000000 1.000000
vt 0.000000 0.000000
vt 0.000000 0.000000
vt 1.000000 0.000000
vt 1.000000 1.000000
vt 0.000000 1.000000
vt 0.000000 0.000000
vt 1.000000 0.000000
vt 1.000000 1.000000
vt 0.000000 1.000000
vt 1.000000 0.000000
vt 0.000000 1.000000
vt 0.000000 0.000000
vt 1.000000 0.000000
vt 1.000000 1.000000
vt 0.000000 1.000000
vt 0.000000 0.000000
vt 1.000000 1.000000
vn 0.0000 -1.0000 -0.0000
vn 0.0000 1.0000 0.0000
vn 0.0000 -0.0000 1.0000
vn 1.0000 0.0000 0.0000
vn 0.0000 0.0000 -1.0000
vn -1.0000 0.0000 0.0000
usemtl 01___Default
s 1
f 1/1/1 2/2/1 3/3/1
f 3/3/1 4/4/1 1/1/1
f 5/5/2 6/6/2 7/7/2
f 7/7/2 8/8/2 5/5/2
f 1/9/3 4/10/3 6/11/3
f 6/11/3 5/12/3 1/9/3
f 4/4/4 3/13/4 7/7/4
f 7/7/4 6/14/4 4/4/4
f 3/15/5 2/16/5 8/17/5
f 8/17/5 7/18/5 3/15/5
f 2/19/6 1/1/6 5/20/6
f 5/20/6 8/8/6 2/19/6
