# Blender 3.3.1
# www.blender.org
mtllib UHFSatcom.mtl
o Cube
v 1.731157 -0.313853 -1.731157
v 1.731157 -1.731157 -1.731157
v 1.731157 -0.313853 1.731157
v 1.731157 -1.731157 1.731157
v -1.731157 -0.313853 -1.731157
v -1.731157 -1.731157 -1.731157
v -1.731157 -0.313853 1.731157
v -1.731157 -1.731157 1.731157
v 1.731157 -0.725046 -0.726659
v 1.731157 -1.319964 -0.726659
v 1.731157 -0.725046 0.726659
v 1.731157 -1.319964 0.726659
v 2.943600 -0.543964 -1.169020
v 2.943600 -1.501046 -1.169020
v 2.943600 -0.543964 1.169020
v 2.943600 -1.501046 1.169020
v 2.943600 -0.339560 -1.668357
v 2.943600 -1.705450 -1.668357
v 2.943600 -0.339560 1.668357
v 2.943600 -1.705450 1.668357
v 7.970891 -0.584507 -1.551479
v 7.970891 -1.950397 -1.551479
v 7.970891 -0.584507 1.785235
v 7.970891 -1.950397 1.785235
v -1.731157 -1.403031 -0.929583
v -1.731157 -1.403031 0.929583
v -1.731157 -0.641979 0.929583
v -1.731157 -0.641979 -0.929583
v -2.582402 -1.551230 -1.291615
v -2.582402 -1.551230 1.291615
v -2.582402 -0.493780 1.291615
v -2.582402 -0.493780 -1.291615
v -2.582402 -1.676663 -1.598034
v -2.582402 -1.676663 1.598034
v -2.582402 -0.368347 1.598034
v -2.582402 -0.368347 -1.598034
v -7.505182 -1.676663 -1.598034
v -7.505182 -1.676663 1.598034
v -7.505182 -0.368347 1.598034
v -7.505182 -0.368347 -1.598034
v -1.200210 -1.731157 1.731157
v -1.200210 -0.313853 1.731157
v 1.200210 -0.313853 1.731157
v 1.200210 -1.731157 1.731157
v -1.200210 -1.731157 2.726739
v -1.200210 -0.313853 2.726739
v 1.200210 -0.313853 2.726739
v 1.200210 -1.731157 2.726739
v -0.064463 1.725086 2.450748
v -0.064463 1.725086 3.667620
v 1.352142 1.345508 2.450748
v 1.352142 1.345508 3.667620
v 2.389169 0.308481 2.450747
v 2.389169 0.308481 3.667620
v 2.768747 -1.108124 2.450747
v 2.768747 -1.108124 3.667620
v 2.389169 -2.524729 2.450747
v 2.389169 -2.524729 3.667620
v 1.352142 -3.561755 2.450747
v 1.352142 -3.561755 3.667620
v -0.064463 -3.941334 2.450747
v -0.064463 -3.941334 3.667620
v -1.481068 -3.561755 2.450747
v -1.481068 -3.561755 3.667620
v -2.518094 -2.524729 2.450747
v -2.518094 -2.524729 3.667620
v -2.897673 -1.108124 2.450747
v -2.897673 -1.108124 3.667620
v -2.518094 0.308481 2.450747
v -2.518094 0.308481 3.667620
v -1.481068 1.345508 2.450748
v -1.481068 1.345508 3.667620
vn -0.0000 1.0000 -0.0000
vn -1.0000 -0.0000 -0.0000
vn -0.0000 -1.0000 -0.0000
vn 1.0000 -0.0000 -0.0000
vn -0.0000 -0.0000 -1.0000
vn -0.1477 0.9890 -0.0000
vn -0.3428 -0.0000 -0.9394
vn -0.1477 -0.9890 -0.0000
vn -0.3428 -0.0000 0.9394
vn -0.0487 -0.9988 -0.0000
vn -0.0232 -0.0000 0.9997
vn 0.0487 0.9988 -0.0000
vn 0.0232 -0.0000 -0.9997
vn 0.1715 -0.9852 -0.0000
vn 0.1715 0.9852 -0.0000
vn 0.3914 -0.0000 0.9202
vn 0.3914 -0.0000 -0.9202
vn -0.0000 -0.0000 1.0000
vn 0.2588 0.9659 -0.0000
vn 0.7071 0.7071 -0.0000
vn 0.9659 0.2588 -0.0000
vn 0.9659 -0.2588 -0.0000
vn 0.7071 -0.7071 -0.0000
vn 0.2588 -0.9659 -0.0000
vn -0.2588 -0.9659 -0.0000
vn -0.7071 -0.7071 -0.0000
vn -0.9659 -0.2588 -0.0000
vn -0.9659 0.2588 -0.0000
vn -0.7071 0.7071 -0.0000
vn -0.2588 0.9659 -0.0000
vt 0.751056 0.180473
vt 0.359170 0.665008
vt 0.211416 0.845482
vt 0.000000 0.845482
vt 0.285293 0.845482
vt 0.433048 0.665008
vt 0.751056 0.000000
vt 0.211416 0.665008
vt 0.245124 0.285299
vt 0.272799 0.359176
vt 0.272799 0.285299
vt 0.245124 0.285299
vt 0.000000 0.665009
vt 0.285293 0.665008
vt 0.570584 0.180473
vt 0.359170 0.845475
vt 0.285293 0.665008
vt 0.180473 0.845482
vt 0.433048 0.845475
vt 0.359170 0.665008
vt 0.245124 0.433053
vt 0.570584 0.000000
vt 0.285293 0.845482
vt 0.245124 0.285299
vt 0.245124 0.285299
vt 0.359170 0.845482
vt 0.180473 0.665009
vt 0.245124 0.359176
vt 0.882682 0.098812
vt 0.232850 0.793122
vt 0.854935 0.166595
vt 0.263860 0.793122
vt 0.823925 0.166595
vt 0.882682 0.144929
vt 0.683812 0.180474
vt 0.882682 0.023058
vt 0.232850 0.717368
vt 0.882682 0.220683
vt 0.263860 0.717368
vt 0.714823 0.180474
vt 0.945852 0.121871
vt 0.864374 0.229601
vt 0.583192 0.821777
vt 0.814486 0.229601
vt 0.945852 0.121871
vt 0.533304 0.821777
vt 0.945852 0.000000
vt 0.583192 0.699907
vt 0.674374 0.243528
vt 0.945852 0.243741
vt 0.724261 0.243528
vt 0.533304 0.699907
vt 0.173926 0.665009
vt 0.593847 0.847805
vt 0.792411 0.664997
vt 0.459220 0.285298
vt 0.522650 0.847805
vt 0.863608 0.664997
vt 0.173927 0.285299
vt 0.593847 0.673879
vt 0.000000 0.665009
vt 0.285293 0.285298
vt 0.522650 0.673879
vt 0.245124 0.285299
vt 0.665044 0.673879
vt 0.173927 0.505811
vt 0.792411 0.505804
vt 0.593847 0.673879
vt 0.863608 0.505804
vt 0.459220 0.444496
vt 0.665044 0.847805
vt 0.173927 0.444494
vt 0.000000 0.505811
vt 0.285293 0.444496
vt 0.593847 0.847805
vt 0.245124 0.444494
vt 0.709438 0.859345
vt 0.342067 0.706790
vt 0.814486 0.237325
vt 0.359170 0.892870
vt 0.709438 0.956254
vt 0.342067 0.803699
vt 0.971432 0.692744
vt 0.302397 0.803699
vt 0.359170 0.853200
vt 0.814486 0.276995
vt 0.302397 0.706790
vt 0.971432 0.789653
vt 0.665044 0.840474
vt 0.859012 0.229601
vt 0.876144 0.150623
vt 0.665044 0.975125
vt 0.403658 0.900595
vt 0.876144 0.015972
vt 0.927037 0.673873
vt 0.403658 0.845475
vt 0.821024 0.015972
vt 0.821024 0.150623
vt 0.927037 0.808524
vt 0.859012 0.284720
vt 0.792410 0.673879
vt 1.000000 0.285298
vt 0.882682 0.166595
vt 0.931804 0.673873
vt 0.882682 0.000000
vt 0.625815 0.673879
vt 0.459220 0.285298
vt 0.814486 0.000000
vt 0.863608 0.673873
vt 0.931804 0.285298
vt 0.814486 0.166595
vt 0.625815 0.285298
vt 1.000000 0.541889
vt 0.733240 0.673878
vt 0.792410 0.417279
vt 0.733240 0.840474
vt 0.625815 0.417279
vt 0.931804 0.417278
vt 0.665044 0.840474
vt 0.459220 0.541897
vt 0.863608 0.417278
vt 0.931804 0.541889
vt 0.665044 0.673878
vt 0.625815 0.541897
vt 0.245124 0.285299
vt 0.785135 0.673879
vt 0.272799 0.359176
vt 0.570584 0.180474
vt 0.570584 0.254351
vt 0.245124 0.285299
vt 0.272799 0.433053
vt 0.785135 0.924122
vt 0.245124 0.285299
vt 0.785135 0.799000
vt 0.245124 0.359176
vt 0.674374 0.254351
vt 0.674374 0.180473
vt 0.785135 0.799000
vt 0.245124 0.285299
vt 0.733240 0.673879
vt 0.937485 0.821554
vt 0.622479 0.180474
vt 0.863608 0.821554
vt 0.733240 0.924122
vt 0.622479 0.254351
vt 0.863608 0.946674
vt 0.622479 0.254351
vt 0.733240 0.799000
vt 0.937485 0.946674
vt 0.733240 0.799000
vt 0.622479 0.180473
vt 0.522650 0.801996
vt 0.389715 0.000000
vt 0.180869 0.000000
vt 0.459220 0.801996
vt 0.522650 0.728096
vt 0.466158 0.000000
vt 0.459220 0.728096
vt 0.104425 0.000001
vt 0.927037 0.821554
vt 0.522650 0.673879
vt 0.532360 0.038223
vt 0.459220 0.673879
vt 0.863608 0.821554
vt 0.038222 0.038224
vt 0.927037 0.747714
vt 0.570583 0.104426
vt 0.863608 0.747714
vt 0.000000 0.104428
vt 0.927037 0.673873
vt 0.855840 0.866895
vt 0.570584 0.180872
vt 0.863608 0.673873
vt 0.792411 0.866895
vt 0.000000 0.180873
vt 0.855840 0.812677
vt 0.532364 0.247075
vt 0.792411 0.812677
vt 0.038222 0.247077
vt 0.855840 0.738778
vt 0.466163 0.285298
vt 0.792411 0.738778
vt 0.104425 0.285299
vt 0.814486 0.255792
vt 0.855840 0.664997
vt 0.389720 0.285298
vt 0.792411 0.664997
vt 0.751057 0.255792
vt 0.180869 0.285298
vt 0.814486 0.201736
vt 0.323517 0.247075
vt 0.751057 0.201736
vt 0.247071 0.247075
vt 0.814486 0.127896
vt 0.285295 0.180872
vt 0.751057 0.127896
vt 0.285293 0.180871
vt 0.814486 0.054055
vt 0.285293 0.104426
vt 0.285293 0.104425
vt 0.751057 0.054055
vt 0.814486 0.000000
vt 0.522650 0.875777
vt 0.323514 0.038223
vt 0.247071 0.038222
vt 0.751057 0.000000
vt 0.459220 0.875777
s 0
usemtl Material
f 5/15/1 3/7/1 1/1/1
f 8/25/1 44/139/1 41/125/1
f 8/26/2 25/78/2 6/20/2
f 2/4/3 8/27/3 6/18/3
f 2/5/4 12/39/4 4/14/4
f 5/16/5 2/6/5 6/19/5
f 11/36/6 13/41/6 9/29/6
f 3/8/4 9/30/4 1/3/4
f 4/14/4 11/37/4 3/8/4
f 1/3/4 10/32/4 2/5/4
f 15/48/2 17/54/2 13/43/2
f 10/33/7 13/42/7 14/44/7
f 10/34/8 16/50/8 12/38/8
f 12/40/9 15/49/9 11/35/9
f 20/62/10 22/70/10 24/74/10
f 14/46/2 17/54/2 18/57/2
f 14/46/2 20/63/2 16/52/2
f 16/52/2 19/60/2 15/48/2
f 21/65/4 24/75/4 22/68/4
f 20/64/11 23/72/11 19/59/11
f 19/61/12 21/66/12 17/53/12
f 18/58/13 21/67/13 22/69/13
f 26/81/14 29/89/14 25/77/14
f 5/17/2 27/84/2 7/23/2
f 5/17/2 25/78/2 28/87/2
f 7/23/2 26/82/2 8/26/2
f 32/98/4 35/108/4 31/97/4
f 28/88/15 31/95/15 27/83/15
f 27/85/16 30/93/16 26/80/16
f 25/79/17 32/100/17 28/86/17
f 33/102/5 40/122/5 36/110/5
f 31/97/4 34/105/4 30/94/4
f 29/91/4 36/111/4 32/98/4
f 30/94/4 33/103/4 29/91/4
f 39/119/2 37/114/2 38/116/2
f 34/106/3 37/115/3 33/101/3
f 36/112/1 39/120/1 35/107/1
f 35/109/18 38/118/18 34/104/18
f 44/138/3 45/140/3 41/126/3
f 3/9/1 42/130/1 43/133/1
f 3/10/18 44/139/18 4/11/18
f 8/28/18 42/131/18 7/21/18
f 47/146/18 45/141/18 48/149/18
f 43/136/4 48/151/4 44/137/4
f 42/132/1 47/148/1 43/134/1
f 41/128/2 46/145/2 42/129/2
f 50/155/19 51/156/19 49/152/19
f 52/158/20 53/161/20 51/156/20
f 54/164/21 55/166/21 53/160/21
f 56/168/22 57/170/22 55/166/22
f 57/171/23 60/178/23 59/176/23
f 60/178/24 61/180/24 59/176/24
f 62/182/25 63/185/25 61/180/25
f 64/188/26 65/190/26 63/184/26
f 66/192/27 67/194/27 65/190/27
f 68/196/28 69/198/28 67/194/28
f 70/200/18 62/183/18 54/165/18
f 70/201/29 71/202/29 69/198/29
f 71/203/30 50/155/30 49/152/30
f 55/167/5 63/186/5 71/204/5
f 5/15/1 7/22/1 3/7/1
f 8/25/1 4/12/1 44/139/1
f 8/26/2 26/82/2 25/78/2
f 2/4/3 4/13/3 8/27/3
f 2/5/4 10/32/4 12/39/4
f 5/16/5 1/2/5 2/6/5
f 11/36/6 15/47/6 13/41/6
f 3/8/4 11/37/4 9/30/4
f 4/14/4 12/39/4 11/37/4
f 1/3/4 9/30/4 10/32/4
f 15/48/2 19/60/2 17/54/2
f 10/33/7 9/31/7 13/42/7
f 10/34/8 14/45/8 16/50/8
f 12/40/9 16/51/9 15/49/9
f 20/62/10 18/56/10 22/70/10
f 14/46/2 13/43/2 17/54/2
f 14/46/2 18/57/2 20/63/2
f 16/52/2 20/63/2 19/60/2
f 21/65/4 23/71/4 24/75/4
f 20/64/11 24/76/11 23/72/11
f 19/61/12 23/73/12 21/66/12
f 18/58/13 17/55/13 21/67/13
f 26/81/14 30/92/14 29/89/14
f 5/17/2 28/87/2 27/84/2
f 5/17/2 6/20/2 25/78/2
f 7/23/2 27/84/2 26/82/2
f 32/98/4 36/111/4 35/108/4
f 28/88/15 32/99/15 31/95/15
f 27/85/16 31/96/16 30/93/16
f 25/79/17 29/90/17 32/100/17
f 33/102/5 37/113/5 40/122/5
f 31/97/4 35/108/4 34/105/4
f 29/91/4 33/103/4 36/111/4
f 30/94/4 34/105/4 33/103/4
f 39/119/2 40/123/2 37/114/2
f 34/106/3 38/117/3 37/115/3
f 36/112/1 40/124/1 39/120/1
f 35/109/18 39/121/18 38/118/18
f 44/138/3 48/150/3 45/140/3
f 3/9/1 7/24/1 42/130/1
f 3/10/18 43/135/18 44/139/18
f 8/28/18 41/127/18 42/131/18
f 47/146/18 46/143/18 45/141/18
f 43/136/4 47/147/4 48/151/4
f 42/132/1 46/144/1 47/148/1
f 41/128/2 45/142/2 46/145/2
f 50/155/19 52/158/19 51/156/19
f 52/158/20 54/163/20 53/161/20
f 54/164/21 56/168/21 55/166/21
f 56/168/22 58/173/22 57/170/22
f 57/171/23 58/174/23 60/178/23
f 60/178/24 62/182/24 61/180/24
f 62/182/25 64/187/25 63/185/25
f 64/188/26 66/192/26 65/190/26
f 66/192/27 68/196/27 67/194/27
f 68/196/28 70/201/28 69/198/28
f 54/165/18 52/159/18 50/154/18
f 50/154/18 72/205/18 70/200/18
f 70/200/18 68/197/18 66/193/18
f 66/193/18 64/189/18 62/183/18
f 62/183/18 60/179/18 58/175/18
f 58/175/18 56/169/18 54/165/18
f 54/165/18 50/154/18 70/200/18
f 70/200/18 66/193/18 62/183/18
f 62/183/18 58/175/18 54/165/18
f 70/201/29 72/206/29 71/202/29
f 71/203/30 72/207/30 50/155/30
f 71/204/5 49/153/5 51/157/5
f 51/157/5 53/162/5 55/167/5
f 55/167/5 57/172/5 59/177/5
f 59/177/5 61/181/5 63/186/5
f 63/186/5 65/191/5 67/195/5
f 67/195/5 69/199/5 71/204/5
f 71/204/5 51/157/5 55/167/5
f 55/167/5 59/177/5 63/186/5
f 63/186/5 67/195/5 71/204/5
