# Blender 3.3.1
# www.blender.org
mtllib UHFSatcom.mtl
o Cube
v 1.639971 -0.278423 -0.890055
v 1.639971 -1.695727 -0.890056
v 1.639971 -0.278424 2.572258
v 1.639971 -1.695728 2.572258
v -1.822343 -0.278423 -0.890055
v -1.822343 -1.695727 -0.890056
v -1.822343 -0.278424 2.572258
v -1.822343 -1.695728 2.572258
v 1.639971 -0.689616 0.114442
v 1.639971 -1.284534 0.114442
v 1.639971 -0.689617 1.567760
v 1.639971 -1.284535 1.567760
v 2.852414 -0.508534 -0.327919
v 2.852414 -1.465616 -0.327919
v 2.852414 -0.508535 2.010121
v 2.852414 -1.465617 2.010121
v 2.852414 -0.304130 -0.827256
v 2.852414 -1.670020 -0.827256
v 2.852414 -0.304131 2.509459
v 2.852414 -1.670021 2.509458
v 7.879705 -0.549077 -0.710378
v 7.879705 -1.914967 -0.710378
v 7.879705 -0.549078 2.626336
v 7.879705 -1.914968 2.626336
v -1.822343 -1.367601 -0.088482
v -1.822343 -1.367602 1.770684
v -1.822343 -0.606550 1.770684
v -1.822343 -0.606549 -0.088482
v -2.673588 -1.515800 -0.450514
v -2.673588 -1.515801 2.132716
v -2.673588 -0.458351 2.132716
v -2.673588 -0.458350 -0.450514
v -2.673588 -1.641233 -0.756933
v -2.673588 -1.641234 2.439135
v -2.673588 -0.332918 2.439135
v -2.673588 -0.332917 -0.756933
v -7.596367 -1.641233 -0.756933
v -7.596367 -1.641234 2.439135
v -7.596367 -0.332918 2.439135
v -7.596367 -0.332917 -0.756933
v -1.291396 -1.695728 2.572258
v -1.291396 -0.278424 2.572258
v 1.109024 -0.278424 2.572258
v 1.109024 -1.695728 2.572258
v -1.291396 -1.695728 3.567840
v -1.291396 -0.278424 3.567840
v 1.109024 -0.278424 3.567840
v 1.109024 -1.695728 3.567840
v -0.155649 1.760515 3.291850
v -0.155649 1.760515 4.508722
v 1.260956 1.380937 3.291850
v 1.260956 1.380937 4.508722
v 2.297983 0.343910 3.291848
v 2.297983 0.343910 4.508721
v 2.677562 -1.072695 3.291848
v 2.677562 -1.072695 4.508721
v 2.297983 -2.489300 3.291848
v 2.297983 -2.489300 4.508721
v 1.260956 -3.526326 3.291848
v 1.260956 -3.526326 4.508721
v -0.155649 -3.905905 3.291848
v -0.155649 -3.905905 4.508721
v -1.572254 -3.526326 3.291848
v -1.572254 -3.526326 4.508721
v -2.609280 -2.489300 3.291848
v -2.609280 -2.489300 4.508721
v -2.988858 -1.072695 3.291848
v -2.988858 -1.072695 4.508721
v -2.609280 0.343910 3.291848
v -2.609280 0.343910 4.508721
v -1.572254 1.380937 3.291850
v -1.572254 1.380937 4.508722
v -0.313788 -4.563326 -1.596207
v 3.004560 -2.028362 0.814686
v -1.581260 -2.028364 2.304735
v -4.415485 -2.028344 -1.596207
v -1.581260 -2.028364 -5.497149
v 3.004560 -2.028363 -4.007100
v 0.953683 2.073395 2.304735
v -3.632136 2.073393 0.814686
v -3.632136 2.073393 -4.007100
v 0.953683 2.073395 -5.497149
v 3.787908 2.073375 -1.596207
v 0.468859 4.813446 -1.596207
v -1.058784 -3.878451 0.696692
v 1.636674 -3.878449 -0.179130
v 0.891686 -2.388434 2.113792
v 3.587148 -2.388426 -1.596207
v 1.636674 -3.878449 -3.013284
v -2.724701 -3.878438 -1.596207
v -3.469715 -2.388427 0.696700
v -1.058784 -3.878451 -3.889106
v -3.469715 -2.388427 -3.889114
v 0.891686 -2.388434 -5.306206
v 4.047612 0.022516 -0.179124
v 4.047612 0.022516 -3.013290
v -0.313788 0.022516 2.989634
v 2.381703 0.022516 2.113815
v -4.675189 0.022516 -0.179124
v -3.009279 0.022516 2.113815
v -3.009279 0.022516 -5.306229
v -4.675189 0.022516 -3.013290
v 2.381703 0.022516 -5.306229
v -0.313788 0.022516 -6.182048
v 2.842139 2.433458 0.696699
v -1.519263 2.433465 2.113792
v -4.214725 2.433457 -1.596207
v -1.519263 2.433465 -5.306206
v 2.842139 2.433458 -3.889114
v -0.147080 4.012083 -1.083115
v 0.225710 4.012080 -1.596207
v -0.750255 4.012083 -1.279101
v -0.750255 4.012083 -1.913313
v -0.147080 4.012083 -2.109299
v 0.225710 4.824959 -1.596207
v 0.468859 5.742744 -1.596207
v -0.147080 4.824962 -1.083115
v -0.750255 4.824961 -1.279101
v -0.750255 4.824961 -1.913313
v -0.147080 4.824962 -2.109300
v -0.071944 4.813449 -0.851868
v -0.946965 4.813448 -1.136184
v -0.946965 4.813448 -2.056230
v -0.071944 4.813449 -2.340546
v -0.313790 5.965078 -1.596207
v -0.071944 5.742748 -0.851868
v -0.946965 5.742747 -1.136184
v -0.946965 5.742747 -2.056230
v -0.071944 5.742748 -2.340546
vn -0.0000 1.0000 -0.0000
vn -1.0000 -0.0000 -0.0000
vn -0.0000 -1.0000 -0.0000
vn 1.0000 -0.0000 -0.0000
vn -0.0000 -0.0000 -1.0000
vn -0.1477 0.9890 -0.0000
vn -0.3428 -0.0000 -0.9394
vn -0.1477 -0.9890 -0.0000
vn -0.3428 -0.0000 0.9394
vn -0.0487 -0.9988 -0.0000
vn -0.0232 -0.0000 0.9997
vn 0.0487 0.9988 -0.0000
vn 0.0232 -0.0000 -0.9997
vn 0.1715 -0.9852 -0.0000
vn 0.1715 0.9852 -0.0000
vn 0.3914 -0.0000 0.9202
vn 0.3914 -0.0000 -0.9202
vn -0.0000 -0.0000 1.0000
vn 0.2588 0.9659 -0.0000
vn 0.7071 0.7071 -0.0000
vn 0.9659 0.2588 -0.0000
vn 0.9659 -0.2588 -0.0000
vn 0.7071 -0.7071 -0.0000
vn 0.2588 -0.9659 -0.0000
vn -0.2588 -0.9659 -0.0000
vn -0.7071 -0.7071 -0.0000
vn -0.9659 -0.2588 -0.0000
vn -0.9659 0.2588 -0.0000
vn -0.7071 0.7071 -0.0000
vn -0.2588 0.9659 -0.0000
vn 0.1024 -0.9435 0.3151
vn 0.7002 -0.6617 0.2680
vn -0.2680 -0.9435 0.1947
vn -0.2680 -0.9435 -0.1947
vn 0.1024 -0.9435 -0.3151
vn 0.9050 -0.3304 0.2680
vn 0.0247 -0.3304 0.9435
vn -0.8897 -0.3304 0.3151
vn -0.5746 -0.3304 -0.7488
vn 0.5346 -0.3304 -0.7779
vn 0.8026 -0.1256 0.5831
vn -0.3066 -0.1256 0.9435
vn -0.9921 -0.1256 -0.0000
vn -0.3066 -0.1256 -0.9435
vn 0.8026 -0.1256 -0.5831
vn 0.2037 0.8768 0.4356
vn -0.3513 0.8768 0.3283
vn -0.4208 0.8768 -0.2326
vn 0.0912 0.8768 -0.4721
vn 0.4772 0.8768 -0.0591
vn 0.8090 -0.0000 -0.5878
vn 0.3355 0.9100 -0.2437
vn 0.2037 0.8768 -0.4356
vn -0.1281 0.9100 -0.3943
vn -0.3513 0.8768 -0.3283
vn 0.8090 -0.0000 0.5878
vn -0.4146 0.9100 -0.0000
vn -0.4208 0.8768 0.2326
vn -0.3090 -0.0000 -0.9511
vn -0.1281 0.9100 0.3943
vn 0.0912 0.8768 0.4721
vn -0.3090 -0.0000 0.9511
vn 0.3355 0.9100 0.2437
vn 0.4772 0.8768 0.0591
vn 0.8897 0.3304 -0.3151
vn 0.7947 0.1876 -0.5773
vn 0.5746 0.3304 -0.7488
vn -0.0247 0.3304 -0.9435
vn -0.3035 0.1876 -0.9342
vn -0.5346 0.3304 -0.7779
vn -0.9050 0.3304 -0.2680
vn -0.9822 0.1876 -0.0000
vn -0.9050 0.3304 0.2680
vn -0.5346 0.3304 0.7779
vn -0.3035 0.1876 0.9342
vn -0.0247 0.3304 0.9435
vn 0.5746 0.3304 0.7488
vn 0.7947 0.1876 0.5773
vn 0.8897 0.3304 0.3151
vn 0.3066 0.1256 -0.9435
vn 0.3035 -0.1876 -0.9342
vn 0.0247 -0.3304 -0.9435
vn -0.8026 0.1256 -0.5831
vn -0.7947 -0.1876 -0.5773
vn -0.8897 -0.3304 -0.3151
vn -0.8026 0.1256 0.5831
vn -0.7947 -0.1876 0.5773
vn -0.5746 -0.3304 0.7488
vn 0.3066 0.1256 0.9435
vn 0.3035 -0.1876 0.9342
vn 0.5346 -0.3304 0.7779
vn 0.9921 0.1256 -0.0000
vn 0.9822 -0.1876 -0.0000
vn 0.9050 -0.3304 -0.2680
vn 0.4713 -0.6617 -0.5831
vn 0.1876 -0.7947 -0.5773
vn -0.0385 -0.6617 -0.7488
vn -0.4089 -0.6617 -0.6284
vn -0.4911 -0.7947 -0.3568
vn -0.7240 -0.6617 -0.1947
vn -0.7240 -0.6617 0.1947
vn -0.4911 -0.7947 0.3568
vn -0.4089 -0.6617 0.6284
vn 0.7002 -0.6617 -0.2680
vn 0.6071 -0.7947 -0.0000
vn 0.3313 -0.9435 -0.0000
vn -0.0385 -0.6617 0.7488
vn 0.1876 -0.7947 0.5773
vn 0.4713 -0.6617 0.5831
vn 0.0181 -0.9983 0.0556
vn 0.0181 -0.9983 -0.0556
vn -0.0473 -0.9983 0.0343
vn 0.0584 -0.9983 -0.0000
vn -0.0473 -0.9983 -0.0343
vn 0.2680 0.9435 -0.1947
vn -0.1024 0.9435 -0.3151
vn -0.3313 0.9435 -0.0000
vn -0.1024 0.9435 0.3151
vn 0.2680 0.9435 0.1947
vt 0.809031 0.209744
vt 0.646892 0.765366
vt 0.809032 0.209744
vt 0.608732 0.765366
vt 0.685051 0.765366
vt 0.746885 0.209744
vt 0.646891 0.905196
vt 0.443308 0.427500
vt 0.204826 0.822164
vt 0.166667 0.822164
vt 0.443308 0.427500
vt 0.746885 0.209744
vt 0.608732 0.905196
vt 0.809031 0.419487
vt 0.646892 0.905175
vt 0.570572 0.765366
vt 0.809032 0.000000
vt 0.685051 0.905175
vt 0.608732 0.765366
vt 0.746885 0.419487
vt 0.570572 0.905196
vt 0.443308 0.427500
vt 0.443308 0.427500
vt 0.608732 0.905196
vt 0.746885 0.000000
vt 0.785045 0.419487
vt 0.785045 0.496047
vt 0.635821 0.805934
vt 0.570572 0.916166
vt 0.619803 0.805934
vt 0.570572 0.952206
vt 0.406631 0.853804
vt 0.646892 0.952184
vt 0.785045 0.437353
vt 0.635821 0.864628
vt 0.406631 0.912498
vt 0.619803 0.864628
vt 0.646892 0.916145
vt 0.817667 0.513912
vt 0.592470 0.905196
vt 0.355709 0.785586
vt 0.592470 0.963175
vt 0.439284 0.835939
vt 0.381478 0.785586
vt 0.817667 0.419487
vt 0.355709 0.880011
vt 0.668795 0.963154
vt 0.439284 0.930363
vt 0.668795 0.905175
vt 0.381478 0.880011
vt 0.687000 0.000000
vt 0.350206 0.765420
vt 0.266775 0.693741
vt 0.687000 0.613439
vt 0.386981 0.765420
vt 0.303452 0.687706
vt 0.406631 0.427500
vt 0.350206 0.900177
vt 0.746885 0.002088
vt 0.746885 0.611350
vt 0.386981 0.900177
vt 0.443308 0.433529
vt 0.483336 0.781954
vt 0.687000 0.304647
vt 0.266775 0.490278
vt 0.446561 0.781954
vt 0.303452 0.484243
vt 0.687000 0.308824
vt 0.483336 0.916711
vt 0.406631 0.631127
vt 0.746885 0.306736
vt 0.746885 0.306735
vt 0.446561 0.916711
vt 0.443308 0.637156
vt 0.266775 0.982226
vt 0.599897 0.797739
vt 0.553787 0.790931
vt 0.553787 0.901095
vt 0.266775 0.907141
vt 0.599897 0.872823
vt 0.801735 0.937868
vt 0.579407 0.872823
vt 0.553787 0.854991
vt 0.553787 0.837035
vt 0.579407 0.797739
vt 0.801735 0.862783
vt 0.289686 0.996847
vt 0.568951 0.781954
vt 0.521939 0.794329
vt 0.289686 0.892520
vt 0.568946 0.910073
vt 0.521939 0.898656
vt 0.824671 0.952489
vt 0.568946 0.846013
vt 0.550409 0.898656
vt 0.550409 0.794329
vt 0.824671 0.848162
vt 0.568951 0.846013
vt 0.744368 0.911657
vt 0.406631 0.835939
vt 0.518561 0.781954
vt 0.302000 0.892520
vt 0.518561 0.911031
vt 0.687000 0.911657
vt 0.744368 0.613439
vt 0.553787 0.911031
vt 0.266775 0.892520
vt 0.441856 0.835939
vt 0.553787 0.781954
vt 0.801735 0.613439
vt 0.406631 0.637156
vt 0.518561 0.781954
vt 0.744368 0.613439
vt 0.518561 0.911031
vt 0.687000 0.613439
vt 0.302000 0.693740
vt 0.483336 0.911031
vt 0.744368 0.911655
vt 0.266775 0.693740
vt 0.441856 0.637156
vt 0.483336 0.781954
vt 0.801735 0.911655
vt 0.404851 0.765420
vt 0.785045 0.440927
vt 0.826902 0.085859
vt 0.204826 0.940531
vt 0.826902 0.000000
vt 0.443308 0.427500
vt 0.746885 0.440927
vt 0.260856 0.967578
vt 0.260856 0.822164
vt 0.204826 0.843603
vt 0.826902 0.171719
vt 0.785045 0.537855
vt 0.826902 0.085859
vt 0.443308 0.427500
vt 0.404851 0.910836
vt 0.166667 0.843603
vt 0.386981 0.765420
vt 0.242986 0.822164
vt 0.809032 0.085859
vt 0.204826 0.822164
vt 0.242986 0.967578
vt 0.809032 0.000000
vt 0.204826 0.919092
vt 0.809032 0.171719
vt 0.242986 0.822164
vt 0.242986 0.919092
vt 0.386981 0.910836
vt 0.809032 0.085859
vt 0.801735 0.699156
vt 0.369988 0.427500
vt 0.203309 0.822164
vt 0.823577 0.699156
vt 0.801735 0.785071
vt 0.393219 0.460194
vt 0.823577 0.785071
vt 0.230133 0.809585
vt 0.830874 0.419487
vt 0.801735 0.848162
vt 0.406631 0.529400
vt 0.823577 0.848162
vt 0.809031 0.419487
vt 0.253363 0.755104
vt 0.830874 0.333719
vt 0.406631 0.616575
vt 0.809031 0.333719
vt 0.266775 0.673318
vt 0.830874 0.247853
vt 0.393219 0.698360
vt 0.809031 0.247853
vt 0.266775 0.586143
vt 0.830874 0.184899
vt 0.350206 0.999998
vt 0.369988 0.752841
vt 0.809031 0.184899
vt 0.328363 0.999998
vt 0.253363 0.516937
vt 0.350206 0.914226
vt 0.343164 0.765420
vt 0.328363 0.914226
vt 0.230133 0.484243
vt 0.350206 0.828365
vt 0.319933 0.732726
vt 0.328363 0.828365
vt 0.203309 0.496822
vt 0.328363 1.000000
vt 0.350206 0.765420
vt 0.306521 0.663520
vt 0.328363 0.765420
vt 0.306521 1.000000
vt 0.180079 0.551303
vt 0.328363 0.914229
vt 0.306521 0.576344
vt 0.306521 0.914229
vt 0.166667 0.633089
vt 0.328363 0.828366
vt 0.319933 0.494559
vt 0.166667 0.720263
vt 0.306521 0.828366
vt 0.328363 0.765420
vt 0.801735 0.613439
vt 0.343164 0.440078
vt 0.180079 0.789470
vt 0.306521 0.765420
vt 0.823577 0.613439
vt 0.376541 0.236059
vt 0.528734 0.320941
vt 0.570572 0.657250
vt 0.419815 0.035335
vt 0.446561 0.313141
vt 0.652363 0.652844
vt 0.528733 0.677785
vt 0.652384 0.112523
vt 0.306521 0.313141
vt 0.570572 0.108113
vt 0.333267 0.035335
vt 0.448147 0.249918
vt 0.306521 0.320870
vt 0.604239 0.406884
vt 0.286154 0.040341
vt 0.687000 0.402426
vt 0.448146 0.481846
vt 0.199720 0.030337
vt 0.687000 0.362943
vt 0.528732 0.410822
vt 0.166667 0.304682
vt 0.604258 0.358482
vt 0.232674 0.484243
vt 0.528734 0.053972
vt 0.795020 0.601671
vt 0.746915 0.567916
vt 0.644705 0.765366
vt 0.417697 0.281271
vt 0.493928 0.410822
vt 0.401977 0.117982
vt 0.608289 0.677038
vt 0.443133 0.163289
vt 0.484917 0.305670
vt 0.376541 0.000000
vt 0.446561 0.369076
vt 0.351105 0.117982
vt 0.546868 0.781954
vt 0.376541 0.382191
vt 0.687000 0.672797
vt 0.493929 0.731765
vt 0.417697 0.427499
vt 0.644705 0.000000
vt 0.335385 0.281271
vt 0.687000 0.092571
vt 0.335384 0.427499
vt 0.570572 0.664216
vt 0.309948 0.163289
vt 0.608307 0.088328
vt 0.532285 0.190496
vt 0.484917 0.148750
vt 0.628078 0.529876
vt 0.570572 0.224468
vt 0.580002 0.532466
vt 0.484915 0.583006
vt 0.446561 0.616596
vt 0.676724 0.527256
vt 0.676742 0.238113
vt 0.570572 0.507299
vt 0.532282 0.541259
vt 0.446561 0.115174
vt 0.580019 0.232899
vt 0.628107 0.235491
vt 0.275086 0.431689
vt 0.570649 0.386875
vt 0.570572 0.067547
vt 0.306521 0.170770
vt 0.648437 0.382684
vt 0.243745 0.000000
vt 0.484914 0.426089
vt 0.173512 0.155375
vt 0.648454 0.382684
vt 0.192882 0.422174
vt 0.493929 0.000000
vt 0.570646 0.378489
vt 0.247326 0.246743
vt 0.610889 0.954487
vt 0.626682 0.954440
vt 0.237612 0.268232
vt 0.601679 0.954440
vt 0.244647 0.209845
vt 0.637570 0.954440
vt 0.771936 0.587098
vt 0.783320 0.587098
vt 0.233278 0.208529
vt 0.564673 0.910073
vt 0.228930 0.244614
vt 0.592470 0.954487
vt 0.553787 0.910073
vt 0.601679 0.905196
vt 0.796406 0.587273
vt 0.360181 0.900177
vt 0.771936 0.567916
vt 0.610889 0.905244
vt 0.626682 0.905196
vt 0.789530 0.560815
vt 0.771936 0.537855
vt 0.637570 0.905196
vt 0.796406 0.526779
vt 0.783320 0.537855
vt 0.564673 0.959317
vt 0.807532 0.532202
vt 0.553787 0.959317
vt 0.592470 0.905243
vt 0.807532 0.569589
vt 0.785045 0.563288
vt 0.746885 0.597977
vt 0.684591 0.905175
vt 0.668795 0.905175
vt 0.795020 0.513912
vt 0.289686 0.948816
vt 0.811160 0.521778
vt 0.306200 0.948816
vt 0.626682 0.905196
vt 0.811160 0.576016
vt 0.610889 0.905196
vt 0.746885 0.537855
vt 0.364647 0.946571
vt 0.771906 0.597977
vt 0.350206 0.938560
vt 0.684591 0.961472
vt 0.360181 0.987936
vt 0.289686 0.892520
vt 0.668795 0.961472
vt 0.306200 0.892520
vt 0.376321 0.980069
vt 0.626682 0.961493
vt 0.610889 0.961493
vt 0.376321 0.925832
vt 0.771906 0.537855
s 0
usemtl Material.001
f 5/14/1 3/6/1 1/1/1
f 8/26/1 44/134/1 41/124/1
f 8/24/2 25/76/2 6/19/2
f 2/3/3 8/25/3 6/17/3
f 2/4/4 12/37/4 4/13/4
f 5/15/5 2/5/5 6/18/5
f 11/34/6 13/39/6 9/27/6
f 3/7/4 9/28/4 1/2/4
f 4/13/4 11/35/4 3/7/4
f 1/2/4 10/30/4 2/4/4
f 15/46/2 17/52/2 13/41/2
f 10/31/7 13/40/7 14/42/7
f 10/32/8 16/48/8 12/36/8
f 12/38/9 15/47/9 11/33/9
f 20/60/10 22/68/10 24/72/10
f 14/44/2 17/52/2 18/55/2
f 14/44/2 20/61/2 16/50/2
f 16/50/2 19/58/2 15/46/2
f 21/63/4 24/73/4 22/66/4
f 20/62/11 23/70/11 19/57/11
f 19/59/12 21/64/12 17/51/12
f 18/56/13 21/65/13 22/67/13
f 26/79/14 29/87/14 25/75/14
f 5/16/2 27/82/2 7/21/2
f 5/16/2 25/76/2 28/85/2
f 7/21/2 26/80/2 8/24/2
f 32/96/4 35/106/4 31/95/4
f 28/86/15 31/93/15 27/81/15
f 27/83/16 30/91/16 26/78/16
f 25/77/17 32/98/17 28/84/17
f 33/100/5 40/120/5 36/108/5
f 31/95/4 34/103/4 30/92/4
f 29/89/4 36/109/4 32/96/4
f 30/92/4 33/101/4 29/89/4
f 39/117/2 37/112/2 38/114/2
f 34/104/3 37/113/3 33/99/3
f 36/110/1 39/118/1 35/105/1
f 35/107/18 38/116/18 34/102/18
f 44/137/3 45/139/3 41/123/3
f 3/9/1 42/126/1 43/132/1
f 3/9/18 44/138/18 4/10/18
f 8/26/18 42/129/18 7/20/18
f 47/145/18 45/140/18 48/148/18
f 43/133/4 48/150/4 44/135/4
f 42/130/1 47/147/1 43/131/1
f 41/125/2 46/144/2 42/127/2
f 50/154/19 51/155/19 49/151/19
f 52/157/20 53/160/20 51/155/20
f 54/163/21 55/165/21 53/159/21
f 56/167/22 57/169/22 55/165/22
f 57/169/23 60/176/23 59/173/23
f 60/177/24 61/179/24 59/174/24
f 62/181/25 63/183/25 61/179/25
f 64/185/26 65/188/26 63/183/26
f 66/191/27 67/193/27 65/187/27
f 68/195/28 69/197/28 67/193/28
f 70/199/18 62/182/18 54/164/18
f 70/200/29 71/201/29 69/197/29
f 71/202/30 50/154/30 49/151/30
f 55/166/5 63/184/5 71/203/5
f 5/14/1 7/20/1 3/6/1
f 8/23/1 4/11/1 44/136/1
f 8/24/2 26/80/2 25/76/2
f 2/3/3 4/12/3 8/25/3
f 2/4/4 10/30/4 12/37/4
f 5/15/5 1/2/5 2/5/5
f 11/34/6 15/45/6 13/39/6
f 3/7/4 11/35/4 9/28/4
f 4/13/4 12/37/4 11/35/4
f 1/2/4 9/28/4 10/30/4
f 15/46/2 19/58/2 17/52/2
f 10/31/7 9/29/7 13/40/7
f 10/32/8 14/43/8 16/48/8
f 12/38/9 16/49/9 15/47/9
f 20/60/10 18/54/10 22/68/10
f 14/44/2 13/41/2 17/52/2
f 14/44/2 18/55/2 20/61/2
f 16/50/2 20/61/2 19/58/2
f 21/63/4 23/69/4 24/73/4
f 20/62/11 24/74/11 23/70/11
f 19/59/12 23/71/12 21/64/12
f 18/56/13 17/53/13 21/65/13
f 26/79/14 30/90/14 29/87/14
f 5/16/2 28/85/2 27/82/2
f 5/16/2 6/19/2 25/76/2
f 7/21/2 27/82/2 26/80/2
f 32/96/4 36/109/4 35/106/4
f 28/86/15 32/97/15 31/93/15
f 27/83/16 31/94/16 30/91/16
f 25/77/17 29/88/17 32/98/17
f 33/100/5 37/111/5 40/120/5
f 31/95/4 35/106/4 34/103/4
f 29/89/4 33/101/4 36/109/4
f 30/92/4 34/103/4 33/101/4
f 39/117/2 40/121/2 37/112/2
f 34/104/3 38/115/3 37/113/3
f 36/110/1 40/122/1 39/118/1
f 35/107/18 39/119/18 38/116/18
f 44/137/3 48/149/3 45/139/3
f 3/8/1 7/22/1 42/128/1
f 3/9/18 43/132/18 44/138/18
f 8/26/18 41/124/18 42/129/18
f 47/145/18 46/142/18 45/140/18
f 43/133/4 47/146/4 48/150/4
f 42/130/1 46/143/1 47/147/1
f 41/125/2 45/141/2 46/144/2
f 50/154/19 52/157/19 51/155/19
f 52/157/20 54/162/20 53/160/20
f 54/163/21 56/167/21 55/165/21
f 56/167/22 58/171/22 57/169/22
f 57/169/23 58/171/23 60/176/23
f 60/177/24 62/181/24 61/179/24
f 62/181/25 64/185/25 63/183/25
f 64/185/26 66/190/26 65/188/26
f 66/191/27 68/195/27 67/193/27
f 68/195/28 70/200/28 69/197/28
f 54/164/18 52/158/18 50/153/18
f 50/153/18 72/204/18 70/199/18
f 70/199/18 68/196/18 66/192/18
f 66/192/18 64/186/18 62/182/18
f 62/182/18 60/178/18 58/172/18
f 58/172/18 56/168/18 54/164/18
f 54/164/18 50/153/18 70/199/18
f 70/199/18 66/192/18 62/182/18
f 62/182/18 58/172/18 54/164/18
f 70/200/29 72/205/29 71/201/29
f 71/202/30 72/206/30 50/154/30
f 71/203/5 49/152/5 51/156/5
f 51/156/5 53/161/5 55/166/5
f 55/166/5 57/170/5 59/175/5
f 59/175/5 61/180/5 63/184/5
f 63/184/5 65/189/5 67/194/5
f 67/194/5 69/198/5 71/203/5
f 71/203/5 51/156/5 55/166/5
f 55/166/5 59/175/5 63/184/5
f 63/184/5 67/194/5 71/203/5
f 73/207/31 86/236/31 85/234/31
f 74/208/32 86/235/32 88/239/32
f 73/207/33 85/234/33 90/244/33
f 73/207/34 90/244/34 92/249/34
f 73/207/35 92/249/35 89/242/35
f 74/208/36 88/239/36 95/255/36
f 75/212/37 87/237/37 97/257/37
f 76/213/38 91/246/38 99/260/38
f 77/214/39 93/250/39 101/263/39
f 78/216/40 94/254/40 103/267/40
f 74/208/41 95/255/41 98/258/41
f 75/212/42 97/257/42 100/262/42
f 76/213/43 99/260/43 102/265/43
f 77/214/44 101/263/44 104/268/44
f 78/218/45 103/266/45 96/256/45
f 79/219/46 105/269/46 110/281/46
f 80/221/47 106/272/47 112/286/47
f 81/224/48 107/274/48 113/290/48
f 82/227/49 108/276/49 114/292/49
f 83/229/50 109/278/50 111/284/50
f 114/293/51 115/295/51 111/285/51
f 111/284/52 109/278/52 114/292/52
f 109/278/53 82/227/53 114/292/53
f 112/288/2 119/305/2 113/289/2
f 114/292/54 108/276/54 113/290/54
f 108/276/55 81/224/55 113/290/55
f 110/282/56 115/295/56 117/299/56
f 113/290/57 107/274/57 112/286/57
f 107/274/58 80/221/58 112/286/58
f 114/294/59 119/306/59 120/308/59
f 112/286/60 106/272/60 110/281/60
f 106/272/61 79/219/61 110/281/61
f 110/283/62 118/303/62 112/287/62
f 110/281/63 105/269/63 111/284/63
f 105/269/64 83/229/64 111/284/64
f 96/256/65 109/279/65 83/230/65
f 96/256/66 103/266/66 109/279/66
f 103/267/67 82/228/67 109/280/67
f 104/268/68 108/277/68 82/228/68
f 104/268/69 101/263/69 108/277/69
f 101/263/70 81/225/70 108/277/70
f 102/265/71 107/275/71 81/226/71
f 102/265/72 99/260/72 107/275/72
f 99/260/73 80/223/73 107/275/73
f 100/262/74 106/273/74 80/222/74
f 100/262/75 97/257/75 106/273/75
f 97/257/76 79/220/76 106/273/76
f 98/259/77 105/270/77 79/220/77
f 98/258/78 95/255/78 105/271/78
f 95/255/79 83/230/79 105/271/79
f 103/267/80 104/268/80 82/228/80
f 103/267/81 94/254/81 104/268/81
f 94/254/82 77/214/82 104/268/82
f 101/264/83 102/265/83 81/226/83
f 101/264/84 93/252/84 102/265/84
f 93/252/85 76/213/85 102/265/85
f 99/260/86 100/261/86 80/223/86
f 99/260/87 91/246/87 100/261/87
f 91/245/88 75/212/88 100/262/88
f 97/257/89 98/259/89 79/220/89
f 97/257/90 87/237/90 98/259/90
f 87/237/91 74/209/91 98/259/91
f 95/255/92 96/256/92 83/230/92
f 95/255/93 88/239/93 96/256/93
f 88/239/94 78/218/94 96/256/94
f 89/242/95 94/253/95 78/217/95
f 89/242/96 92/249/96 94/253/96
f 92/248/97 77/214/97 94/254/97
f 92/249/98 93/251/98 77/215/98
f 92/249/99 90/244/99 93/251/99
f 90/243/100 76/213/100 93/252/100
f 90/243/101 91/246/101 76/213/101
f 90/244/102 85/234/102 91/247/102
f 85/234/103 75/211/103 91/247/103
f 88/239/104 89/241/104 78/218/104
f 88/240/105 86/236/105 89/242/105
f 86/236/106 73/207/106 89/242/106
f 85/233/107 87/237/107 75/212/107
f 85/234/108 86/236/108 87/238/108
f 86/236/109 74/210/109 87/238/109
f 120/310/110 123/317/110 124/320/110
f 117/301/111 122/315/111 118/304/111
f 115/296/112 124/320/112 84/231/112
f 119/307/113 122/315/113 123/317/113
f 115/296/114 121/311/114 117/301/114
f 123/318/2 127/328/2 128/330/2
f 121/312/56 116/298/56 126/324/56
f 124/321/59 128/332/59 129/333/59
f 121/313/62 127/329/62 122/314/62
f 124/322/51 116/298/51 84/232/51
f 116/297/115 129/334/115 125/323/115
f 129/334/116 128/331/116 125/323/116
f 128/331/117 127/327/117 125/323/117
f 127/327/118 126/325/118 125/323/118
f 126/325/119 116/297/119 125/323/119
f 114/293/51 120/309/51 115/295/51
f 112/288/2 118/302/2 119/305/2
f 110/282/56 111/285/56 115/295/56
f 114/294/59 113/291/59 119/306/59
f 110/283/62 117/300/62 118/303/62
f 120/310/110 119/307/110 123/317/110
f 117/301/111 121/311/111 122/315/111
f 115/296/112 120/310/112 124/320/112
f 119/307/113 118/304/113 122/315/113
f 115/296/114 84/231/114 121/311/114
f 123/318/2 122/316/2 127/328/2
f 121/312/56 84/232/56 116/298/56
f 124/321/59 123/319/59 128/332/59
f 121/313/62 126/326/62 127/329/62
f 124/322/51 129/335/51 116/298/51
